<?xml version="1.0" encoding="utf-8"?>
<!-- Generator: Adobe Illustrator 19.2.1, SVG Export Plug-In . SVG Version: 6.00 Build 0)  -->
<svg version="1.1" xmlns="http://www.w3.org/2000/svg" xmlns:xlink="http://www.w3.org/1999/xlink" x="0px" y="0px"
	 viewBox="0 0 275 75" style="enable-background:new 0 0 275 75;" xml:space="preserve">
<style type="text/css">
	.st0{display:none;}
	.st1{display:inline;fill:#42382E;}
	.st2{display:inline;}
	.st3{fill:#42382E;}
	.st4{font-family:'HelveticaBQ-Bold';}
	.st5{font-size:33.5457px;}
	.st6{font-family:'Calibri';}
	.st7{font-size:13.4221px;}
	.st8{letter-spacing:6.1;}
	.st9{letter-spacing:5.2;}
	.st10{letter-spacing:1.7;}
</style>
<g id="Слой_1" class="st0">
	<path class="st1" d="M45.6,19.3c0,0.1,0.1,0.2,0.1,0.4c0,0,0,3.6-0.4,4.3c0,0-0.7,1-1.8,0.2c0,0-0.9-0.7-1.8-0.4
		c0,0-1.6,0.2-1.3,3.1c0,0,0.1,1.6,1.8,1.8c0,0,0.7,0.1,1.4-0.8c0,0,1.1-1.3,1.6,0.6c0,0,0.2,1,0.2,2.9l-0.1,1.7l-0.2,1.6
		c0,0-0.1,0.9-1.1,0.8l-2.8,0.2c0,0-0.6-0.1-0.2-1.6c0,0,0.4-1.3,0.3-2c0,0-0.4-1.7-2.5-2c0,0-1.8-0.1-2.6,1.6c0,0-0.4,1,0,2.1
		c0,0,0.4,1.9-0.5,1.9l-3.4-0.2c0,0-0.7-0.1-0.8-2l-0.1-1.1l-0.1-1.6l0.1-1.4c0,0,0-2.5,1.8-1.4c0,0,0.5,0.7,1.6,0.5
		c0,0,1.7-0.4,1.8-2.3c0,0,0.3-2.6-2.1-2.7c0,0-0.5-0.1-1.3,0.7c0,0-1.5,1.1-1.7-0.4l0-1.8c0,0,0-1.7,0.3-2.4l-7,0v12.4
		c0,3.1,0.3,7.5,2.1,9.5c1.9,2.1,5.5,1.7,8.9,1.7h5.9c3.3-0.1,6.9,0.4,8.9-1.7c1.8-2,2.1-6.3,2.1-9.5V19.3H45.6z"/>
	<g class="st2">
		<text transform="matrix(1.0293 0 0 1 57.9399 42.8364)" class="st3 st4 st5">DIASPORA</text>
	</g>
	<g class="st2">
		<text transform="matrix(1.1504 0 0 1 23.9404 61.7324)" class="st3 st6 st7 st8">СВІЙ СЕРЕД СВОЇХ</text>
	</g>
</g>
<g id="Слой_2" class="st0">
	<path class="st1" d="M45.6,19.3c0,0.1,0.1,0.2,0.1,0.4c0,0,0,3.6-0.4,4.3c0,0-0.7,1-1.8,0.2c0,0-0.9-0.7-1.8-0.4
		c0,0-1.6,0.2-1.3,3.1c0,0,0.1,1.6,1.8,1.8c0,0,0.7,0.1,1.4-0.8c0,0,1.1-1.3,1.6,0.6c0,0,0.2,1,0.2,2.9l-0.1,1.7l-0.2,1.6
		c0,0-0.1,0.9-1.1,0.8l-2.8,0.2c0,0-0.6-0.1-0.2-1.6c0,0,0.4-1.3,0.3-2c0,0-0.4-1.7-2.5-2c0,0-1.8-0.1-2.6,1.6c0,0-0.4,1,0,2.1
		c0,0,0.4,1.9-0.5,1.9l-3.4-0.2c0,0-0.7-0.1-0.8-2l-0.1-1.1l-0.1-1.6l0.1-1.4c0,0,0-2.5,1.8-1.4c0,0,0.5,0.7,1.6,0.5
		c0,0,1.7-0.4,1.8-2.3c0,0,0.3-2.6-2.1-2.7c0,0-0.5-0.1-1.3,0.7c0,0-1.5,1.1-1.7-0.4l0-1.8c0,0,0-1.7,0.3-2.4l-7,0v12.4
		c0,3.1,0.3,7.5,2.1,9.5c1.9,2.1,5.5,1.7,8.9,1.7h5.9c3.3-0.1,6.9,0.4,8.9-1.7c1.8-2,2.1-6.3,2.1-9.5V19.3H45.6z"/>
	<g class="st2">
		<text transform="matrix(1.0293 0 0 1 57.9399 42.8364)" class="st3 st4 st5">DIASPORA</text>
	</g>
	<g class="st2">
		<text transform="matrix(1.1504 0 0 1 23.9404 61.7324)" class="st3 st6 st7 st9">СВОЙ СРЕДИ СВОИХ</text>
	</g>
</g>
<g id="Слой_3">
	<path class="st3" d="M45.6,19.3c0,0.1,0.1,0.2,0.1,0.4c0,0,0,3.6-0.4,4.3c0,0-0.7,1-1.8,0.2c0,0-0.9-0.7-1.8-0.4
		c0,0-1.6,0.2-1.3,3.1c0,0,0.1,1.6,1.8,1.8c0,0,0.7,0.1,1.4-0.8c0,0,1.1-1.3,1.6,0.6c0,0,0.2,1,0.2,2.9l-0.1,1.7l-0.2,1.6
		c0,0-0.1,0.9-1.1,0.8l-2.8,0.2c0,0-0.6-0.1-0.2-1.6c0,0,0.4-1.3,0.3-2c0,0-0.4-1.7-2.5-2c0,0-1.8-0.1-2.6,1.6c0,0-0.4,1,0,2.1
		c0,0,0.4,1.9-0.5,1.9l-3.4-0.2c0,0-0.7-0.1-0.8-2l-0.1-1.1l-0.1-1.6l0.1-1.4c0,0,0-2.5,1.8-1.4c0,0,0.5,0.7,1.6,0.5
		c0,0,1.7-0.4,1.8-2.3c0,0,0.3-2.6-2.1-2.7c0,0-0.5-0.1-1.3,0.7c0,0-1.5,1.1-1.7-0.4l0-1.8c0,0,0-1.7,0.3-2.4l-7,0v12.4
		c0,3.1,0.3,7.5,2.1,9.5c1.9,2.1,5.5,1.7,8.9,1.7h5.9c3.3-0.1,6.9,0.4,8.9-1.7c1.8-2,2.1-6.3,2.1-9.5V19.3H45.6z"/>
	<g>
		<text transform="matrix(1.0293 0 0 1 57.9399 42.8364)" class="st3 st4 st5">DIASPORA</text>
	</g>
	<g>
		<text transform="matrix(1.1504 0 0 1 23.9404 61.7324)" class="st3 st6 st7 st10">a friend among friends</text>
	</g>
</g>
</svg>
